# xmcd
#
# Track frame offsets:
#	150
#	22380
#	38912
#	59960
#	79070
#	95505
#	112610
#	132000
#	153897
#	170890
#	196987
#	216502
#	238472
#	256560
#	278210
#	300655
#
# Disc length: 4299 seconds
#
# Revision: 1
# Processed by: cddbd v1.5.1PL0 Copyright (c) Steve Scherf et al.
# Submitted via: CDex 1.50Beta5
#
DISCID=e710c910
DTITLE=さまざまなアーティスト - スーパーヒット16
DYEAR=1900
DGENRE=Pop
TTITLE0=高井麻巳子/テンダー・レイン
TTITLE1=光GENJI/ガラスの十代
TTITLE2=斉藤由貴/「さよなら」
TTITLE3=工藤静香/Again
TTITLE4=BaBe/HoldMe!
TTITLE5=後ろ髪ひかれ隊/メビウスの恋人
TTITLE6=ゆうゆ(岩井由紀子)/25セントの満月
TTITLE7=Danger/NINETEEN
TTITLE8=チェッカーズ/BlueRain
TTITLE9=THE ALFEE/MyTruth
TTITLE10=中島みゆき/御機嫌如何
TTITLE11=尾崎亜美/RainbowTree
TTITLE12=藤井尚之/Naturally
TTITLE13=チャゲ&飛鳥/ロマンシング ヤード
TTITLE14=世良公則/HEART IS GOLD
TTITLE15=岩城洸一/ほっとけない
EXTD=
EXTT0=
EXTT1=
EXTT2=
EXTT3=
EXTT4=
EXTT5=
EXTT6=
EXTT7=
EXTT8=
EXTT9=
EXTT10=
EXTT11=
EXTT12=
EXTT13=
EXTT14=
EXTT15=
PLAYORDER=
